<svg width="100%" height="100%" viewBox="0 0 64 64" fill="none" xmlns="http://www.w3.org/2000/svg">
<path d="M42 26V34" stroke="inherit" stroke-width="4" stroke-linecap="round" stroke-linejoin="round"/>
<path d="M22 26V34" stroke="inherit" stroke-width="4" stroke-linecap="round" stroke-linejoin="round"/>
<path d="M24 50H40" stroke="inherit" stroke-width="4" stroke-linecap="round" stroke-linejoin="round"/>
<path d="M42 10.9995V26H22V10.9995C22 10.8682 22.0259 10.7382 22.0762 10.6169C22.1264 10.4956 22.2001 10.3854 22.293 10.2926C22.3858 10.1998 22.4961 10.1262 22.6174 10.076C22.7387 10.0258 22.8687 9.99996 23 10H41C41.1313 9.99996 41.2613 10.0258 41.3826 10.076C41.5039 10.1262 41.6142 10.1998 41.707 10.2926C41.7999 10.3854 41.8736 10.4956 41.9238 10.6169C41.9741 10.7382 42 10.8682 42 10.9995Z" stroke="inherit" stroke-width="4" stroke-linecap="round" stroke-linejoin="round"/>
<path d="M45 34H19C18.8687 34 18.7386 34.0258 18.6173 34.0761C18.4959 34.1263 18.3857 34.2 18.2928 34.2928C18.2 34.3857 18.1263 34.4959 18.0761 34.6173C18.0258 34.7386 18 34.8687 18 35V42H46V35C46 34.8687 45.9742 34.7386 45.9239 34.6173C45.8737 34.4959 45.8 34.3857 45.7072 34.2928C45.6143 34.2 45.5041 34.1263 45.3827 34.0761C45.2614 34.0258 45.1313 34 45 34Z" stroke="inherit" stroke-width="4" stroke-linecap="round" stroke-linejoin="round"/>
<path d="M24 52.9995V42H18V52.9995C17.9999 53.1309 18.0257 53.261 18.0759 53.3824C18.1262 53.5037 18.1998 53.614 18.2927 53.707C18.3856 53.7999 18.4958 53.8736 18.6172 53.9239C18.7385 53.9741 18.8686 54 19 54H23C23.1314 54 23.2615 53.9741 23.3828 53.9239C23.5042 53.8736 23.6144 53.7999 23.7073 53.707C23.8002 53.614 23.8738 53.5037 23.924 53.3824C23.9743 53.261 24.0001 53.1309 24 52.9995Z" stroke="inherit" stroke-width="4" stroke-linecap="round" stroke-linejoin="round"/>
<path d="M46 52.9995V42H40V52.9995C39.9999 53.1309 40.0257 53.261 40.0759 53.3824C40.1262 53.5037 40.1998 53.614 40.2927 53.707C40.3856 53.7999 40.4958 53.8736 40.6172 53.9239C40.7385 53.9741 40.8686 54 41 54H45C45.1314 54 45.2615 53.9741 45.3828 53.9239C45.5042 53.8736 45.6144 53.7999 45.7073 53.707C45.8002 53.614 45.8738 53.5037 45.924 53.3824C45.9743 53.261 46.0001 53.1309 46 52.9995Z" stroke="inherit" stroke-width="4" stroke-linecap="round" stroke-linejoin="round"/>
</svg>
