<svg width="100%" height="100%" viewBox="0 0 64 64" fill="none" xmlns="http://www.w3.org/2000/svg">
<path d="M36.1504 27.8501C32.7093 27.6073 29.3054 26.9869 26 26C26.9868 29.3053 27.6073 32.709 27.8501 36.1499C26.6401 36.0601 25.3501 36 24 36C19.261 35.9838 14.5449 36.6576 10 38C11.3424 33.4551 12.0162 28.739 12 24C12.0162 19.261 11.3424 14.5449 10 10C14.5449 11.3424 19.261 12.0162 24 12C28.739 12.0162 33.4551 11.3424 38 10C36.6576 14.5449 35.9838 19.261 36 24C36 25.3501 36.0596 26.6401 36.1504 27.8501Z" stroke="inherit" stroke-width="4" stroke-linecap="round" stroke-linejoin="round"/>
<path d="M27.8501 36.1499C27.9399 37.3599 28 38.6499 28 40C28.0162 44.739 27.3424 49.4551 26 54C35.1429 51.3333 44.8571 51.3333 54 54C51.3333 44.8571 51.3333 35.1429 54 26C49.4551 27.3424 44.739 28.0162 40 28C38.6504 28 37.3604 27.9399 36.1504 27.8501C32.7093 27.6073 29.3054 26.9869 26 26C26.9868 29.3053 27.6073 32.709 27.8501 36.1499Z" stroke="inherit" stroke-width="4" stroke-linecap="round" stroke-linejoin="round"/>
</svg>
