<svg width="100%" height="100%" viewBox="0 0 64 64" fill="none" xmlns="http://www.w3.org/2000/svg">
<path d="M14 18H49.9995C51.0605 18 52.078 18.4215 52.8283 19.1717C53.5785 19.922 54 20.9395 54 22.0005V42C54 43.0609 53.5786 44.0783 52.8284 44.8284C52.0783 45.5786 51.0609 46 50 46H14C12.9391 46 11.9217 45.5786 11.1716 44.8284C10.4214 44.0783 10 43.0609 10 42V22C10 20.9391 10.4214 19.9217 11.1716 19.1716C11.9217 18.4214 12.9391 18 14 18Z" stroke="inherit" stroke-width="4" stroke-linecap="round" stroke-linejoin="round"/>
<path d="M10 24H54" stroke="inherit" stroke-width="4" stroke-linecap="round" stroke-linejoin="round"/>
<path d="M10 40H54" stroke="inherit" stroke-width="4" stroke-linecap="round" stroke-linejoin="round"/>
</svg>
