<svg width="100%" height="100%" viewBox="0 0 64 64" fill="none" xmlns="http://www.w3.org/2000/svg">
<path d="M42 28C44.1217 28.0001 46.1565 28.843 47.6567 30.3433C49.157 31.8435 49.9999 33.8783 50 36V42H42V36H18V28H42Z" stroke="inherit" stroke-width="4" stroke-linecap="round" stroke-linejoin="round"/>
<path d="M28 28V22H36V28" stroke="inherit" stroke-width="4" stroke-linecap="round" stroke-linejoin="round"/>
<path d="M27 16C26.2044 16 25.4413 16.3161 24.8787 16.8787C24.3161 17.4413 24 18.2044 24 19C24 19.7956 24.3161 20.5587 24.8787 21.1213C25.4413 21.6839 26.2044 22 27 22H37C37.7956 22 38.5587 21.6839 39.1213 21.1213C39.6839 20.5587 40 19.7956 40 19C40 18.2044 39.6839 17.4413 39.1213 16.8787C38.5587 16.3161 37.7956 16 37 16H27Z" stroke="inherit" stroke-width="4" stroke-linecap="round" stroke-linejoin="round"/>
<path d="M38 44V48H54V44C54 43.4696 53.7893 42.9609 53.4142 42.5858C53.0391 42.2107 52.5304 42 52 42H40C39.4696 42 38.9609 42.2107 38.5858 42.5858C38.2107 42.9609 38 43.4696 38 44Z" stroke="inherit" stroke-width="4" stroke-linecap="round" stroke-linejoin="round"/>
<path d="M11 24H17C17.2652 24 17.5196 24.1054 17.7071 24.2929C17.8946 24.4804 18 24.7348 18 25V39C18 39.2652 17.8946 39.5196 17.7071 39.7071C17.5196 39.8946 17.2652 40 17 40H10.9995C10.7344 40 10.4802 39.8947 10.2927 39.7073C10.1053 39.5198 10 39.2656 10 39.0005V25C10 24.7348 10.1054 24.4804 10.2929 24.2929C10.4804 24.1054 10.7348 24 11 24Z" stroke="inherit" stroke-width="4" stroke-linecap="round" stroke-linejoin="round"/>
</svg>
