<svg width="inherit" height="inherit" viewBox="0 0 64 64" fill="inherit" xmlns="http://www.w3.org/2000/svg">
<path d="M24 10H16V16H24V10Z" stroke="inherit" stroke-width="4" stroke-linecap="round" stroke-linejoin="round"/>
<path d="M24 16V26C24.7879 26 25.5682 26.1551 26.2962 26.4566C27.0241 26.7581 27.6856 27.2001 28.2427 27.7573C28.7999 28.3144 29.2419 28.9759 29.5434 29.7038C29.8449 30.4318 30 31.2121 30 32V50C29.9999 51.0609 29.5784 52.0784 28.8282 52.8285C28.0779 53.5787 27.0604 54.0001 25.9995 54H14C12.9391 54 11.9218 53.5785 11.1716 52.8284C10.4215 52.0782 10 51.0609 10 50V32C9.99995 31.2121 10.1551 30.4318 10.4566 29.7038C10.7581 28.9759 11.2001 28.3144 11.7573 27.7573C12.3144 27.2001 12.9759 26.7581 13.7038 26.4566C14.4318 26.1551 15.2121 26 16 26V16" stroke="inherit" stroke-width="4" stroke-linecap="round" stroke-linejoin="round"/>
<path d="M10 34H30" stroke="inherit" stroke-width="4" stroke-linecap="round" stroke-linejoin="round"/>
<path d="M10 46H30" stroke="inherit" stroke-width="4" stroke-linecap="round" stroke-linejoin="round"/>
<path d="M54 34C54 36.1217 53.1571 38.1566 51.6569 39.6569C50.1566 41.1571 48.1217 42 46 42C43.8783 42 41.8434 41.1571 40.3431 39.6569C38.8429 38.1566 38 36.1217 38 34V18H54V34Z" stroke="inherit" stroke-width="4" stroke-linecap="round" stroke-linejoin="round"/>
<path d="M46 42V54" stroke="inherit" stroke-width="4" stroke-linecap="round" stroke-linejoin="round"/>
<path d="M38 54H54" stroke="inherit" stroke-width="4" stroke-linecap="round" stroke-linejoin="round"/>
<path d="M38 26H54" stroke="inherit" stroke-width="4" stroke-linecap="round" stroke-linejoin="round"/>
</svg>
