<svg width="inherit" height="inherit" viewBox="0 0 64 64" fill="none" xmlns="http://www.w3.org/2000/svg">
<path d="M48 36H16V42H48" stroke="inherit" stroke-width="4" stroke-linecap="round" stroke-linejoin="round"/>
<path d="M52.9995 18H11C10.7348 18 10.4805 18.1054 10.2929 18.2929C10.1054 18.4805 10 18.7348 10 19V30H54V19C54 18.8686 53.9741 18.7386 53.9238 18.6172C53.8735 18.4959 53.7998 18.3856 53.7069 18.2928C53.614 18.1999 53.5037 18.1263 53.3823 18.076C53.2609 18.0258 53.1309 18 52.9995 18Z" stroke="inherit" stroke-width="4" stroke-linecap="round" stroke-linejoin="round"/>
<path d="M16 44.9995V30H10V44.9995C9.99988 45.1309 10.0257 45.261 10.0759 45.3824C10.1261 45.5038 10.1997 45.6141 10.2926 45.7071C10.3855 45.8 10.4958 45.8737 10.6171 45.9239C10.7385 45.9742 10.8686 46.0001 11 46L15 46.0005C15.1314 46.0005 15.2615 45.9745 15.3829 45.9242C15.5042 45.8739 15.6145 45.8001 15.7074 45.7072C15.8002 45.6142 15.8739 45.5039 15.9241 45.3824C15.9743 45.261 16.0001 45.1309 16 44.9995Z" stroke="inherit" stroke-width="4" stroke-linecap="round" stroke-linejoin="round"/>
<path d="M54 44.9995V30H48V44.9995C47.9999 45.1309 48.0257 45.261 48.0759 45.3824C48.1261 45.5038 48.1997 45.6141 48.2926 45.7071C48.3855 45.8 48.4958 45.8737 48.6171 45.9239C48.7385 45.9742 48.8686 46.0001 49 46L53 46.0005C53.1314 46.0005 53.2615 45.9745 53.3829 45.9242C53.5042 45.8739 53.6145 45.8001 53.7074 45.7072C53.8002 45.6142 53.8739 45.5039 53.9241 45.3824C53.9743 45.261 54.0001 45.1309 54 44.9995Z" stroke="inherit" stroke-width="4" stroke-linecap="round" stroke-linejoin="round"/>
</svg>
