<svg width="100%" height="100%" viewBox="0 0 64 64" fill="none" xmlns="http://www.w3.org/2000/svg">
<path d="M32 10V22" stroke="inherit" stroke-width="4" stroke-linecap="round" stroke-linejoin="round"/>
<path d="M26 30V22H38V30" stroke="inherit" stroke-width="4" stroke-linecap="round" stroke-linejoin="round"/>
<path d="M26 48C26 49.5913 26.6321 51.1174 27.7574 52.2426C28.8826 53.3679 30.4087 54 32 54C33.5913 54 35.1174 53.3679 36.2426 52.2426C37.3679 51.1174 38 49.5913 38 48" stroke="inherit" stroke-width="4" stroke-linecap="round" stroke-linejoin="round"/>
<path d="M18 42H46" stroke="inherit" stroke-width="4" stroke-linecap="round" stroke-linejoin="round"/>
<path d="M46 46.9995V37C46 36.0807 45.819 35.1705 45.4672 34.3212C45.1155 33.4719 44.5998 32.7002 43.9498 32.0502C43.2998 31.4002 42.5281 30.8845 41.6788 30.5328C40.8295 30.181 39.9193 30 39 30L25 30.0005C24.0808 30.0004 23.1705 30.1813 22.3212 30.533C21.4719 30.8847 20.7002 31.4003 20.0501 32.0503C19.4001 32.7003 18.8845 33.4719 18.5327 34.3212C18.181 35.1705 17.9999 36.0808 18 37V46.9995C18 47.1309 18.0258 47.2609 18.076 47.3823C18.1263 47.5037 18.1999 47.614 18.2928 47.7069C18.3856 47.7998 18.4959 47.8735 18.6172 47.9238C18.7386 47.9741 18.8686 48 19 48H45C45.1314 48 45.2615 47.9741 45.3828 47.9239C45.5042 47.8736 45.6144 47.7999 45.7073 47.707C45.8002 47.614 45.8738 47.5037 45.924 47.3824C45.9743 47.261 46.0001 47.1309 46 46.9995Z" stroke="inherit" stroke-width="4" stroke-linecap="round" stroke-linejoin="round"/>
</svg>
