<svg width="100%" height="100%" viewBox="0 0 64 64" fill="none" xmlns="http://www.w3.org/2000/svg">
<path d="M38 46H20C18.9391 46 17.9218 45.5785 17.1716 44.8284C16.4215 44.0782 16 43.0609 16 42V34H10V30L16 22V18C16 15.8783 16.8429 13.8434 18.3431 12.3431C19.8434 10.8429 21.8783 10 24 10H46C48.1217 10 50.1566 10.8429 51.6569 12.3431C53.1571 13.8434 54 15.8783 54 18V34C54 35.0506 53.7931 36.0909 53.3911 37.0615C52.9891 38.0321 52.3998 38.914 51.6569 39.6569C50.914 40.3998 50.0321 40.9891 49.0615 41.3911C48.0909 41.7931 47.0506 42 46 42V54" stroke="inherit" stroke-width="4" stroke-linecap="round" stroke-linejoin="round"/>
<path d="M22 46V54" stroke="inherit" stroke-width="4" stroke-linecap="round" stroke-linejoin="round"/>
<path d="M18 54H50" stroke="inherit" stroke-width="4" stroke-linecap="round" stroke-linejoin="round"/>
<path d="M26 46C27.0506 46 28.0909 45.7931 29.0615 45.3911C30.0321 44.9891 30.914 44.3998 31.6569 43.6569C32.3998 42.914 32.9891 42.0321 33.3911 41.0615C33.7931 40.0909 34 39.0506 34 38V34H40C41.5913 34 43.1174 33.3679 44.2426 32.2426C45.3679 31.1174 46 29.5913 46 28C46 26.4087 45.3679 24.8826 44.2426 23.7574C43.1174 22.6321 41.5913 22 40 22H34V18C34 15.8783 33.1571 13.8434 31.6569 12.3431C30.1566 10.8429 28.1217 10 26 10" stroke="inherit" stroke-width="4" stroke-linecap="round" stroke-linejoin="round"/>
<path d="M40 34C38.4087 34 36.8826 33.3679 35.7574 32.2426C34.6321 31.1174 34 29.5913 34 28C34 26.4087 34.6321 24.8826 35.7574 23.7574C36.8826 22.6321 38.4087 22 40 22" stroke="inherit" stroke-width="4" stroke-linecap="round" stroke-linejoin="round"/>
<path d="M16 38H22" stroke="inherit" stroke-width="4" stroke-linecap="round" stroke-linejoin="round"/>
</svg>
