<svg width="25" height="25" viewBox="0 0 25 25" fill="none" xmlns="http://www.w3.org/2000/svg">
<path d="M12.5938 2.47339C10.5912 2.47339 8.63365 3.06721 6.96861 4.17976C5.30356 5.29231 4.00581 6.87362 3.23947 8.72372C2.47314 10.5738 2.27263 12.6096 2.6633 14.5737C3.05398 16.5377 4.01829 18.3418 5.4343 19.7578C6.85031 21.1739 8.65441 22.1382 10.6185 22.5288C12.5825 22.9195 14.6183 22.719 16.4684 21.9527C18.3185 21.1863 19.8998 19.8886 21.0124 18.2235C22.1249 16.5585 22.7188 14.6009 22.7188 12.5984C22.7158 9.91399 21.6481 7.34038 19.7499 5.44222C17.8518 3.54406 15.2782 2.47637 12.5938 2.47339ZM17.3075 6.2937L6.28907 17.3121C5.98783 16.9097 5.72541 16.4797 5.50532 16.0278L16.0231 5.50995C16.4751 5.73004 16.9051 5.99247 17.3075 6.2937ZM18.9013 7.88745C19.2025 8.28986 19.4649 8.7199 19.685 9.17183L9.16438 19.6868C8.71246 19.4667 8.28241 19.2043 7.88 18.9031L18.9013 7.88745ZM12.5938 4.72339C12.9188 4.72406 13.2435 4.74472 13.5659 4.78526L4.78063 13.5706C4.64082 12.4627 4.73862 11.3377 5.0675 10.2705C5.39637 9.20334 5.9488 8.21847 6.68799 7.38144C7.42718 6.54442 8.33618 5.87445 9.35449 5.41613C10.3728 4.95781 11.4771 4.72166 12.5938 4.72339ZM12.5938 20.4734C12.2687 20.4727 11.9441 20.4521 11.6216 20.4115L20.4069 11.6262C20.5467 12.7341 20.4489 13.8591 20.12 14.9263C19.7911 15.9934 19.2387 16.9783 18.4995 17.8153C17.7603 18.6524 16.8513 19.3223 15.833 19.7806C14.8147 20.239 13.7104 20.4751 12.5938 20.4734Z" fill="black"/>
</svg>
