<svg width="25" height="24" viewBox="0 0 25 24" fill="none" xmlns="http://www.w3.org/2000/svg">
<path d="M17.6447 21.75C17.6447 22.0484 17.5261 22.3346 17.3152 22.5455C17.1042 22.7565 16.818 22.875 16.5197 22.875H9.01966C8.72129 22.875 8.43514 22.7565 8.22416 22.5455C8.01318 22.3346 7.89466 22.0484 7.89466 21.75C7.89466 21.4517 8.01318 21.1655 8.22416 20.9546C8.43514 20.7436 8.72129 20.625 9.01966 20.625H16.5197C16.818 20.625 17.1042 20.7436 17.3152 20.9546C17.5261 21.1655 17.6447 21.4517 17.6447 21.75ZM21.3947 9.75005C21.3981 11.0571 21.1028 12.3477 20.5314 13.5232C19.9599 14.6987 19.1274 15.7281 18.0975 16.5329C17.958 16.6391 17.8447 16.7759 17.7662 16.9327C17.6877 17.0895 17.6461 17.2622 17.6447 17.4375V17.625C17.6447 18.1223 17.4471 18.5992 17.0955 18.9509C16.7439 19.3025 16.2669 19.5 15.7697 19.5H9.76966C9.27238 19.5 8.79546 19.3025 8.44383 18.9509C8.0922 18.5992 7.89466 18.1223 7.89466 17.625V17.4375C7.89445 17.2651 7.85461 17.095 7.77821 16.9404C7.70181 16.7858 7.5909 16.6509 7.45403 16.546C6.42688 15.7459 5.59516 14.7227 5.02181 13.5538C4.44846 12.3848 4.14851 11.1008 4.14466 9.7988C4.11935 5.12723 7.89466 1.23755 12.5625 1.12505C13.7124 1.09742 14.8563 1.30009 15.9268 1.72115C16.9972 2.14221 17.9727 2.77314 18.7956 3.57681C19.6186 4.38049 20.2725 5.34067 20.7189 6.40084C21.1652 7.46101 21.395 8.59975 21.3947 9.75005ZM19.1447 9.75005C19.1449 8.89969 18.975 8.05788 18.645 7.27417C18.315 6.49047 17.8316 5.7807 17.2231 5.18666C16.6147 4.59262 15.8935 4.12631 15.1021 3.81519C14.3107 3.50406 13.4651 3.35441 12.615 3.37505C9.16591 3.45755 6.37591 6.33286 6.39466 9.78567C6.39787 10.748 6.61982 11.6969 7.04372 12.5608C7.46763 13.4247 8.08239 14.1809 8.84153 14.7722C9.22398 15.0674 9.53833 15.4415 9.7632 15.8691C9.98807 16.2967 10.1182 16.7677 10.1447 17.25H15.404C15.431 16.7667 15.5613 16.2948 15.7861 15.8661C16.0109 15.4374 16.325 15.0618 16.7072 14.7647C17.4685 14.1697 18.0838 13.4085 18.5063 12.5395C18.9287 11.6704 19.147 10.7163 19.1447 9.75005ZM17.2631 9.2513C17.1636 8.40951 16.8307 7.61231 16.3021 6.94968C15.7735 6.28705 15.0702 5.78538 14.2715 5.5013C13.9924 5.41009 13.6886 5.43165 13.4252 5.56137C13.1617 5.6911 12.9594 5.91869 12.8615 6.19555C12.7636 6.47242 12.7778 6.77659 12.9011 7.04311C13.0245 7.30962 13.2471 7.51735 13.5215 7.62192C13.9229 7.7626 14.2768 8.01275 14.5434 8.3441C14.81 8.67545 14.9785 9.07478 15.03 9.49692C15.0628 9.79355 15.2121 10.065 15.4451 10.2515C15.5604 10.3439 15.6928 10.4126 15.8347 10.4538C15.9766 10.495 16.1253 10.5079 16.2722 10.4916C16.419 10.4754 16.5613 10.4303 16.6907 10.3591C16.8202 10.2879 16.9344 10.1919 17.0268 10.0765C17.1191 9.96118 17.1879 9.82876 17.2291 9.68685C17.2703 9.54494 17.2831 9.3963 17.2668 9.24942L17.2631 9.2513Z" fill="black"/>
</svg>
