<svg width="24" height="24" viewBox="0 0 24 24" fill="none" xmlns="http://www.w3.org/2000/svg">
<g clip-path="url(#clip0_1202_1752)">
<path d="M21.8157 2.18433C20.4423 0.811827 18.5091 0.187452 16.3707 0.424639C14.326 0.651514 12.3254 1.65089 10.7373 3.23714C9.14913 4.82339 8.15069 6.82495 7.92476 8.87058C7.73726 10.589 8.10194 12.1743 8.96538 13.4437L7.06226 15.3478L6.88788 15.1734C6.53627 14.8219 6.05944 14.6244 5.56226 14.6244C5.06507 14.6244 4.58825 14.8219 4.23663 15.1734L1.29944 18.1106C1.12525 18.2847 0.987074 18.4914 0.892799 18.719C0.798523 18.9465 0.75 19.1904 0.75 19.4367C0.75 19.683 0.798523 19.9268 0.892799 20.1544C0.987074 20.3819 1.12525 20.5886 1.29944 20.7628L3.23819 22.7015C3.41231 22.8757 3.61905 23.0139 3.84658 23.1082C4.07412 23.2024 4.31799 23.251 4.56429 23.251C4.81058 23.251 5.05446 23.2024 5.28199 23.1082C5.50953 23.0139 5.71626 22.8757 5.89038 22.7015L8.82569 19.7662C8.99988 19.5921 9.13806 19.3853 9.23234 19.1578C9.32661 18.9303 9.37514 18.6864 9.37514 18.4401C9.37514 18.1938 9.32661 17.9499 9.23234 17.7224C9.13806 17.4949 8.99988 17.2881 8.82569 17.114L8.65132 16.9406L10.5554 15.0365C11.6044 15.75 12.8701 16.125 14.2501 16.125C14.5439 16.125 14.8375 16.1084 15.1294 16.0753C17.1741 15.8484 19.1748 14.849 20.7619 13.2628C22.3491 11.6765 23.3494 9.67495 23.5744 7.62933C23.8126 5.49089 23.1882 3.56245 21.8157 2.18433ZM4.56569 20.8406L3.15944 19.4343L5.56413 17.0296L6.97038 18.4359L4.56569 20.8406ZM12.0001 13.29C11.4691 12.9747 11.0259 12.5311 10.711 12H12.0001V13.29ZM10.1251 9.75089C10.1393 8.7019 10.4089 7.67219 10.9107 6.75089H12.0001V9.75089H10.1251ZM14.2501 6.74995H17.2501V9.74995H14.2501V6.74995ZM19.5001 9.74995V6.74995H21.3751C21.3618 7.79894 21.0924 8.82881 20.5904 9.74995H19.5001ZM20.7891 4.49995H19.5001V3.21183C20.0301 3.52715 20.4729 3.96994 20.7882 4.49995H20.7891ZM17.2332 2.62495H17.2501V4.49995H14.2501V3.40683C15.2316 2.88933 16.2638 2.62495 17.2332 2.62495ZM14.2501 13.8806V12H17.2501V13.094C16.3291 13.5967 15.2992 13.8667 14.2501 13.8806Z" fill="black"/>
</g>
<defs>
<clipPath id="clip0_1202_1752">
<rect width="24" height="24" fill="white"/>
</clipPath>
</defs>
</svg>
