<svg width="24" height="24" viewBox="0 0 24 24" fill="none" xmlns="http://www.w3.org/2000/svg">
<path d="M19.1623 4.8375C17.7459 3.42236 15.9418 2.4589 13.978 2.06892C12.0142 1.67895 9.9788 1.87996 8.1292 2.64655C6.2796 3.41314 4.6988 4.71089 3.58663 6.37575C2.47446 8.04061 1.88086 9.99783 1.88086 12C1.88086 14.0022 2.47446 15.9594 3.58663 17.6243C4.6988 19.2891 6.2796 20.5869 8.1292 21.3535C9.9788 22.12 12.0142 22.3211 13.978 21.9311C15.9418 21.5411 17.7459 20.5776 19.1623 19.1625C21.0593 17.2615 22.1247 14.6856 22.1247 12C22.1247 9.31441 21.0593 6.7385 19.1623 4.8375ZM6.42915 6.43125C7.60226 5.25517 9.1192 4.48291 10.7604 4.22625C10.4977 5.86511 9.72441 7.37924 8.55077 8.55288C7.37713 9.72652 5.863 10.4998 4.22415 10.7625C4.48042 9.12065 5.25271 7.603 6.42915 6.42938V6.43125ZM4.19415 13.0378C6.4467 12.7713 8.543 11.751 10.1426 10.1428C11.7508 8.54323 12.771 6.44694 13.0376 4.19438C14.7534 4.42007 16.3467 5.2057 17.5704 6.42939C18.7941 7.65308 19.5797 9.24641 19.8054 10.9622C17.5547 11.2347 15.4604 12.2539 13.8573 13.8569C12.2541 15.4599 11.2347 17.5541 10.962 19.8047C9.2462 19.5794 7.6528 18.794 6.42907 17.5704C5.20534 16.3468 4.41972 14.7535 4.19415 13.0378ZM17.5704 17.5706C16.397 18.7464 14.8802 19.5186 13.2391 19.7756C13.5019 18.1368 14.2751 16.6226 15.4488 15.449C16.6224 14.2754 18.1365 13.5021 19.7754 13.2394C19.5187 14.8806 18.7465 16.3975 17.5704 17.5706Z" fill="black"/>
</svg>
